<?xml version="1.0" encoding="UTF-8"?>
<svg id="Layer_1" data-name="Layer 1" xmlns="http://www.w3.org/2000/svg" xmlns:xlink="http://www.w3.org/1999/xlink" viewBox="0 0 211.99 36.44">
  <defs>
    <style>
      .cls-1 {
        fill: url(#linear-gradient);
      }

      .cls-1, .cls-2, .cls-3 {
        stroke-width: 0px;
      }

      .cls-2 {
        fill: #000;
      }

      .cls-4 {
        isolation: isolate;
      }

      .cls-3 {
        fill: #fff;
      }
    </style>
    <linearGradient id="linear-gradient" x1="-459.67" y1="319.4" x2="-459.1" y2="318.83" gradientTransform="translate(45968.25 19803.19) scale(100 -62)" gradientUnits="userSpaceOnUse">
      <stop offset="0" stop-color="#1a73e8"/>
      <stop offset="1" stop-color="#00f0ff"/>
    </linearGradient>
  </defs>
  <g class="cls-4">
    <path class="cls-2" d="M68.89,31.74V6.14h22.58c6,0,10.86,3.91,10.77,8.63-.05,3.84-3.13,6.84-7.63,7.86v.04l11,9.07h-8l-10.04-8.37h-12.99v8.37h-5.68ZM74.57,18.8h16.95c2.82,0,5.04-1.86,5.04-4.02s-2.14-4.06-5.04-4.06h-16.95v8.08Z"/>
    <path class="cls-2" d="M138.99,19.89v2.82c0,4.94-5,8.96-11.13,8.96h-9.54c-6.09,0-11.13-4.02-11.13-8.96v-2.82c0-4.94,5.04-9,11.13-9h9.54c6.13,0,11.13,4.06,11.13,9ZM133.31,19.89c0-2.41-2.45-4.43-5.45-4.43h-9.54c-3,0-5.45,2.01-5.45,4.43v2.82c0,2.41,2.45,4.39,5.45,4.39h9.54c3,0,5.45-1.97,5.45-4.39v-2.82Z"/>
    <path class="cls-2" d="M175.43,19.89v2.82c0,4.94-5,8.96-11.13,8.96h-9.36c-2.09,0-4.23-.66-5.63-1.87v1.87h-5.68V4.75h5.68v7.9c1.41-1.06,3.36-1.76,5.45-1.76h9.54c6.13,0,11.13,4.06,11.13,9ZM169.75,19.89c0-2.41-2.45-4.43-5.45-4.43h-9.54c-3,0-5.45,2.01-5.45,4.43v2.82c0,2.41,2.45,4.39,5.45,4.39h9.54c3,0,5.45-1.97,5.45-4.39v-2.82Z"/>
    <path class="cls-2" d="M211.36,19.89v2.82c0,4.94-5,8.96-11.13,8.96h-9.54c-6.09,0-11.13-4.02-11.13-8.96v-2.82c0-4.94,5.04-9,11.13-9h9.54c6.13,0,11.13,4.06,11.13,9ZM205.68,19.89c0-2.41-2.45-4.43-5.45-4.43h-9.54c-3,0-5.45,2.01-5.45,4.43v2.82c0,2.41,2.45,4.39,5.45,4.39h9.54c3,0,5.45-1.97,5.45-4.39v-2.82Z"/>
  </g>
  <rect class="cls-1" x=".96" y=".57" width="57.01" height="35.35" rx="6.84" ry="6.84"/>
  <circle class="cls-3" cx="19.99" cy="12.44" r="3.42"/>
  <circle class="cls-3" cx="41.29" cy="12.44" r="3.42"/>
  <path class="cls-3" d="M35.96,29.37c-4.58,0-10.67-1.13-18.33-3.38-.53-.16-.84-.71-.68-1.25.16-.53.72-.83,1.25-.68,18.19,5.35,23.97,3.2,25.62.45.28-.48.9-.63,1.38-.34.48.28.63.9.34,1.38-1.53,2.55-4.7,3.83-9.57,3.83Z"/>
</svg>