<?xml version="1.0" encoding="UTF-8"?>
<svg id="Layer_1" data-name="Layer 1" xmlns="http://www.w3.org/2000/svg" viewBox="0 0 509.59 131.59">
  <defs>
    <style>
      .cls-1 {
        fill: #000;
        stroke-width: 0px;
      }

      .cls-2 {
        isolation: isolate;
      }
    </style>
  </defs>
  <path class="cls-1" d="M88.16,2H2.69v128.2h85.47c42.73,0,42.73-128.2,0-128.2ZM88.81,39.64l-36.32,53.42c-.9,1.32-2.33,2.16-3.92,2.31-.17.02-.33.02-.5.02-1.41,0-2.77-.56-3.78-1.57l-21.37-21.37c-2.09-2.09-2.09-5.47,0-7.55,2.08-2.09,5.47-2.09,7.55,0l16.8,16.8,32.69-48.08c1.66-2.44,4.98-3.07,7.42-1.41,2.44,1.66,3.07,4.98,1.41,7.42Z"/>
  <g class="cls-2">
    <path class="cls-1" d="M200.18,27.94c5.77,2.56,10.19,6.24,13.27,11.03,3.08,4.79,4.61,10.47,4.61,17.05s-1.54,12.16-4.61,16.99c-3.08,4.83-7.5,8.53-13.27,11.09-5.77,2.56-12.54,3.85-20.32,3.85h-20.26v25.9h-16.67V24.09h36.92c7.78,0,14.55,1.28,20.32,3.85ZM195.63,69.22c3.76-3.08,5.64-7.48,5.64-13.2s-1.88-10.13-5.64-13.21c-3.76-3.08-9.27-4.62-16.54-4.62h-19.49v35.64h19.49c7.26,0,12.78-1.54,16.54-4.62Z"/>
    <path class="cls-1" d="M267.94,44.6v15.26c-1.37-.26-2.61-.39-3.72-.39-6.24,0-11.11,1.82-14.62,5.45-3.51,3.63-5.26,8.87-5.26,15.7v33.2h-16.03V45.37h15.26v10c4.62-7.18,12.73-10.77,24.36-10.77Z"/>
    <path class="cls-1" d="M288.71,110.25c-5.56-2.99-9.89-7.16-13.01-12.5-3.12-5.34-4.68-11.39-4.68-18.14s1.56-12.78,4.68-18.08c3.12-5.3,7.46-9.44,13.01-12.43,5.55-2.99,11.79-4.49,18.72-4.49s13.29,1.5,18.85,4.49c5.55,2.99,9.89,7.14,13.01,12.43,3.12,5.3,4.68,11.33,4.68,18.08s-1.56,12.8-4.68,18.14c-3.12,5.34-7.46,9.51-13.01,12.5-5.56,2.99-11.84,4.49-18.85,4.49s-13.16-1.49-18.72-4.49ZM322.04,95.12c3.85-3.93,5.77-9.1,5.77-15.51s-1.92-11.58-5.77-15.51c-3.85-3.93-8.72-5.9-14.62-5.9s-10.75,1.97-14.55,5.9c-3.8,3.93-5.7,9.1-5.7,15.51s1.9,11.58,5.7,15.51c3.8,3.93,8.65,5.9,14.55,5.9s10.77-1.97,14.62-5.9Z"/>
    <path class="cls-1" d="M410.95,48.96c5.26,2.91,9.38,7.01,12.37,12.31s4.49,11.41,4.49,18.33-1.5,13.06-4.49,18.4c-2.99,5.34-7.12,9.47-12.37,12.37-5.26,2.91-11.22,4.36-17.88,4.36-4.7,0-9-.81-12.88-2.44-3.89-1.62-7.16-4.06-9.81-7.31v8.85h-15.26V18.71h16.03v35c2.74-2.99,5.96-5.26,9.68-6.8,3.72-1.54,7.8-2.31,12.24-2.31,6.66,0,12.63,1.45,17.88,4.36ZM405.82,95.12c3.8-3.93,5.7-9.1,5.7-15.51s-1.9-11.58-5.7-15.51c-3.8-3.93-8.65-5.9-14.55-5.9-3.85,0-7.31.88-10.38,2.63-3.08,1.75-5.51,4.25-7.31,7.5-1.79,3.25-2.69,7.01-2.69,11.28s.9,8.03,2.69,11.28c1.79,3.25,4.23,5.75,7.31,7.5,3.08,1.75,6.54,2.63,10.38,2.63,5.9,0,10.75-1.97,14.55-5.9Z"/>
    <path class="cls-1" d="M450.88,110.25c-5.56-2.99-9.89-7.16-13.01-12.5-3.12-5.34-4.68-11.39-4.68-18.14s1.56-12.78,4.68-18.08c3.12-5.3,7.46-9.44,13.01-12.43,5.55-2.99,11.8-4.49,18.72-4.49s13.29,1.5,18.85,4.49c5.55,2.99,9.89,7.14,13.01,12.43,3.12,5.3,4.68,11.33,4.68,18.08s-1.56,12.8-4.68,18.14c-3.12,5.34-7.46,9.51-13.01,12.5-5.56,2.99-11.84,4.49-18.85,4.49s-13.16-1.49-18.72-4.49ZM484.22,95.12c3.85-3.93,5.77-9.1,5.77-15.51s-1.92-11.58-5.77-15.51c-3.85-3.93-8.72-5.9-14.62-5.9s-10.75,1.97-14.55,5.9c-3.8,3.93-5.7,9.1-5.7,15.51s1.9,11.58,5.7,15.51c3.8,3.93,8.65,5.9,14.55,5.9s10.77-1.97,14.62-5.9Z"/>
  </g>
</svg>