<?xml version="1.0" encoding="UTF-8"?>
<svg id="Layer_1" data-name="Layer 1" xmlns="http://www.w3.org/2000/svg" viewBox="0 0 135.61 134">
  <defs>
    <style>
      .cls-1 {
        fill: #fff;
      }

      .cls-1, .cls-2 {
        stroke-width: 0px;
      }

      .cls-2 {
        fill: #0056ff;
      }
    </style>
  </defs>
  <path class="cls-2" d="M5.1,3.61h93.17c46.59,0,46.59,128.2,0,128.2H5.1V3.61Z"/>
  <path class="cls-1" d="M57.72,97.01c-1.41,0-2.77-.56-3.78-1.56l-21.37-21.37c-2.09-2.09-2.09-5.47,0-7.55,2.08-2.09,5.47-2.09,7.55,0l16.8,16.8,32.69-48.08c1.66-2.44,4.98-3.07,7.42-1.41,2.44,1.66,3.07,4.98,1.41,7.42l-36.32,53.42c-.9,1.32-2.33,2.16-3.92,2.31-.17.02-.33.02-.5.02Z"/>
</svg>